PathFileType	4	(X/Y/Z)	/Users/itak/Documents/Research/Walk-IL/dataset/trc/00034_00004.trc
DataRate	CameraRate	NumFrames	NumMarkers	Units	OrigDataRate	OrigDataStartFrame	OrigNumFrames
100.000000	100.000000	4	53	mm	100.000000	403	806
Frame#	Time	RPSI			LPSI			L3			STRN			T10			C7			CLAV			RBAK			LBAK			LSHO			LUPA			LAEL			LAOL			LWTS			LWPS			LFRA			LIFD			LHPS			LHTS			RSHO			RUPA			RAEL			RAOL			RWTS			RWPS			RFRA			RIFD			RHTS			RHPS			RBHD			LFHD			RFHD			LBHD			LHIP			RHIP			RASI			LASI			LKNE			LTHI			LANK			LTIP			LTOE			LMT1			LMT5			LHEE			RKNE			RTHI			RANK			RTIP			RTOE			RMT1			RMT5			RHEE			
		X1	Y1	Z1	X2	Y2	Z2	X3	Y3	Z3	X4	Y4	Z4	X5	Y5	Z5	X6	Y6	Z6	X7	Y7	Z7	X8	Y8	Z8	X9	Y9	Z9	X10	Y10	Z10	X11	Y11	Z11	X12	Y12	Z12	X13	Y13	Z13	X14	Y14	Z14	X15	Y15	Z15	X16	Y16	Z16	X17	Y17	Z17	X18	Y18	Z18	X19	Y19	Z19	X20	Y20	Z20	X21	Y21	Z21	X22	Y22	Z22	X23	Y23	Z23	X24	Y24	Z24	X25	Y25	Z25	X26	Y26	Z26	X27	Y27	Z27	X28	Y28	Z28	X29	Y29	Z29	X30	Y30	Z30	X31	Y31	Z31	X32	Y32	Z32	X33	Y33	Z33	X34	Y34	Z34	X35	Y35	Z35	X36	Y36	Z36	X37	Y37	Z37	X38	Y38	Z38	X39	Y39	Z39	X40	Y40	Z40	X41	Y41	Z41	X42	Y42	Z42	X43	Y43	Z43	X44	Y44	Z44	X45	Y45	Z45	X46	Y46	Z46	X47	Y47	Z47	X48	Y48	Z48	X49	Y49	Z49	X50	Y50	Z50	X51	Y51	Z51	X52	Y52	Z52	X53	Y53	Z53	

404	4.03	515.39990234375	1029.922729492188	-315.135498046875	584.005126953125	1036.21044921875	-462.7134704589844	543.8048095703125	1097.585693359375	-398.7523803710938	720.9832153320312	1278.591674804688	-250.4800872802734	519.0193481445312	1239.385498046875	-405.7698974609375	553.6860961914062	1503.464965820312	-349.2772827148438	679.1432495117188	1403.826538085938	-259.4630432128906	470.3285217285156	1356.92333984375	-341.6678466796875	600.8316650390625	1484.151489257812	-443.0604248046875	724.8963012695312	1494.863403320312	-431.9993286132812	759.6591796875	1395.20068359375	-535.4500122070312	801.643798828125	1196.535766601562	-608.7425537109375	702.9869995117188	1164.352172851562	-583.0859985351562	871.5000610351562	942.9118041992188	-537.7027587890625	852.4957275390625	933.7009887695312	-624.4679565429688	836.1572265625	1086.0986328125	-621.0025634765625	911.5537109375	760.575439453125	-524.0350952148438	891.9557495117188	847.62255859375	-608.7158203125	912.2277221679688	855.71435546875	-541.0206909179688	504.8775024414062	1454.939575195312	-171.6775512695312	450.1077880859375	1379.805053710938	-141.1672058105469	390.102783203125	1126.688720703125	-207.1545257568359	464.9451293945312	1105.54443359375	-271.9035034179688	482.2667236328125	852.0252685546875	-172.1837615966797	389.3782043457031	843.6851806640625	-183.7200012207031	382.4458618164062	1048.647216796875	-200.9726715087891	497.5590515136719	668.3671264648438	-204.9740447998047	488.5752563476562	738.3177490234375	-159.4808044433594	414.1036682128906	737.5452880859375	-171.372314453125	677.8895263671875	1689.618896484375	-276.2650146484375	610.484130859375	1619.362426757812	-80.02022552490234	703.8585815429688	1635.179809570312	-104.3589172363281	541.1646118164062	1661.377319335938	-235.0892944335938	714.9275512695312	938.1181640625	-525.8275146484375	580.3316650390625	914.7382202148438	-179.0146789550781	700.450439453125	951.3038940429688	-198.9181823730469	795.0433959960938	981.3870849609375	-412.1096496582031	746.3615112304688	486.6969909667969	-540.9705810546875	734.398681640625	636.080078125	-551.173828125	357.5503540039062	202.9631958007812	-738.3978881835938	549.8575439453125	353.0071716308594	-658.9498901367188	449.7959899902344	31.96539688110352	-637.2095947265625	416.3804626464844	79.93730163574219	-630.6289672851562	421.8407287597656	96.71783447265625	-735.720703125	311.7220458984375	263.5105590820312	-701.0381469726562	737.0786743164062	513.0486450195312	-164.8783874511719	632.7083740234375	761.9393920898438	-155.4539031982422	755.9572143554688	32.68959426879883	-286.6439514160156	749.5813598632812	382.6478881835938	-181.9008331298828	934.8472290039062	35.30001449584961	-134.1242065429688	919.485107421875	39.9176139831543	-201.5743255615234	832.8171997070312	35.04317092895508	-158.4062194824219	757.0587158203125	33.73308944702148	-356.3800659179688	
405	4.04	522.0969848632812	1030.96044921875	-310.0518493652344	592.3457641601562	1036.922973632812	-456.8708801269531	551.6403198242188	1098.624633789062	-393.1726989746094	727.0216064453125	1279.564575195312	-243.2826843261719	526.6885986328125	1240.425415039062	-400.4797058105469	560.7630615234375	1504.49853515625	-343.6674499511719	685.3480834960938	1404.82568359375	-252.7130584716797	477.3131103515625	1357.9619140625	-336.7991333007812	608.7974853515625	1485.181762695312	-436.962158203125	732.8197631835938	1495.896850585938	-424.7466430664062	768.1848754882812	1395.953369140625	-527.8424072265625	809.3280029296875	1196.750854492188	-600.4424438476562	710.2462158203125	1165.619873046875	-575.7942504882812	875.2857666015625	941.8120727539062	-530.0025024414062	857.0695190429688	933.3331298828125	-616.9935302734375	842.6565551757812	1085.948974609375	-612.9202270507812	912.2092895507812	758.4811401367188	-517.0603637695312	894.8638916015625	846.3234252929688	-601.1492309570312	914.693603515625	853.9833374023438	-533.4008178710938	510.0797729492188	1456.058227539062	-166.6508941650391	455.34814453125	1380.80859375	-136.3606872558594	396.3589782714844	1127.03466796875	-201.6228485107422	471.986083984375	1106.011108398438	-265.9224548339844	491.769775390625	853.7551879882812	-163.5728302001953	399.091796875	844.0902709960938	-175.6508026123047	389.6036682128906	1048.786865234375	-194.8866577148438	509.6880187988281	670.0599975585938	-194.0391540527344	499.2893371582031	740.3037719726562	-149.5323486328125	425.0254211425781	738.429931640625	-161.9322662353516	683.9780883789062	1690.652221679688	-269.2860412597656	614.7527465820312	1620.273071289062	-73.79821014404297	708.3553466796875	1636.197509765625	-97.19573211669922	546.9891357421875	1662.262573242188	-229.5019989013672	724.4945068359375	938.5242919921875	-518.2565307617188	585.4485473632812	915.5411376953125	-173.3661193847656	705.9522094726562	952.24853515625	-191.5550994873047	802.8131103515625	982.4718017578125	-403.684814453125	764.5035400390625	486.4468078613281	-528.520751953125	750.2276000976562	636.0440673828125	-540.7513427734375	374.7905578613281	210.3529357910156	-734.1472778320312	568.7478637695312	355.350830078125	-650.5791625976562	462.2219543457031	34.2242546081543	-634.0810546875	429.7365417480469	83.60749816894531	-627.1862182617188	437.7174072265625	103.3715972900391	-731.7884521484375	329.274658203125	270.9716796875	-696.5560913085938	740.5359497070312	512.5109252929688	-161.0155181884766	637.5310668945312	762.1658325195312	-150.1650543212891	756.019775390625	32.76531219482422	-286.6177978515625	752.0765991210938	382.0953063964844	-179.0611572265625	935.09716796875	34.91183090209961	-134.075439453125	919.6388549804688	39.75239944458008	-201.5229339599609	832.9869995117188	34.99729156494141	-158.3250732421875	757.0965576171875	33.8555793762207	-356.3377075195312	
406	4.05	528.6148071289062	1032.025390625	-305.0207824707031	600.513427734375	1037.6748046875	-451.0559997558594	559.2849731445312	1099.676391601562	-387.6720886230469	732.9047241210938	1280.545654296875	-236.2092742919922	534.215576171875	1241.491943359375	-395.2799682617188	567.7460327148438	1505.56201171875	-338.1701965332031	691.4135131835938	1405.846435546875	-246.0993957519531	484.1662292480469	1359.047973632812	-332.0456848144531	616.6500244140625	1486.220825195312	-430.976318359375	740.6516723632812	1496.963256835938	-417.65478515625	776.583984375	1396.675537109375	-520.339599609375	816.9494018554688	1196.933959960938	-592.2076416015625	717.4509887695312	1166.854125976562	-568.6287231445312	879.0071411132812	940.7266235351562	-522.4165649414062	861.63818359375	932.9979858398438	-609.6361694335938	849.0987548828125	1085.777099609375	-604.898681640625	912.6534423828125	756.3441772460938	-510.4485473632812	897.7262573242188	845.0261840820312	-593.6805419921875	917.068115234375	852.2823486328125	-525.9006958007812	515.2191162109375	1457.205200195312	-161.7364959716797	460.4607238769531	1381.85888671875	-131.6829223632812	402.4263610839844	1127.41357421875	-196.1259918212891	478.7214965820312	1106.505981445312	-260.0230102539062	501.2341918945312	855.679931640625	-154.8320159912109	408.8270263671875	844.6011962890625	-167.3475189208984	396.5821228027344	1048.959594726562	-188.7837371826172	521.9569091796875	672.0213623046875	-182.6797485351562	510.0882568359375	742.5684204101562	-139.2752990722656	435.9919738769531	739.4929809570312	-152.1524810791016	690.0425415039062	1691.686767578125	-262.4120178222656	618.9927368164062	1621.182373046875	-67.69927978515625	712.8021240234375	1637.177124023438	-90.152099609375	552.771484375	1663.197998046875	-224.0251007080078	734.0133056640625	938.9839477539062	-510.6467895507812	590.3679809570312	916.3654174804688	-167.8081512451172	711.2796020507812	953.21826171875	-184.3051300048828	810.4127807617188	983.5687255859375	-395.3302917480469	782.2818603515625	486.4844665527344	-515.618896484375	765.7091064453125	636.1878051757812	-530.0015258789062	393.0281677246094	216.5558319091797	-729.4568481445312	587.7515869140625	357.5016784667969	-641.7783203125	477.3070983886719	36.98857498168945	-630.3682861328125	445.2286376953125	87.16114807128906	-623.2210693359375	455.5711975097656	109.4962921142578	-727.3145141601562	347.27197265625	276.9121704101562	-691.7789306640625	743.5468139648438	511.9161376953125	-157.3315277099609	641.9573364257812	762.3607788085938	-145.0104370117188	756.0427856445312	32.81169128417969	-286.60693359375	754.2017822265625	381.5229187011719	-176.3911285400391	935.2562255859375	34.67131042480469	-134.0320434570312	919.7210693359375	39.67317962646484	-201.4661712646484	833.0792846679688	34.96095657348633	-158.2540740966797	757.1068115234375	33.97489929199219	-356.3051452636719	
407	4.06	534.9522094726562	1033.107788085938	-300.0656127929688	608.5385131835938	1038.470458984375	-445.2678833007812	566.7422485351562	1100.738159179688	-382.2597961425781	738.6436767578125	1281.546630859375	-229.2484588623047	541.6107177734375	1242.579345703125	-390.1740417480469	574.635986328125	1506.654052734375	-332.7843627929688	697.3446655273438	1406.898315429688	-239.6150054931641	490.89697265625	1360.174560546875	-327.4078979492188	624.3868408203125	1487.266723632812	-425.0989685058594	748.3920288085938	1498.072021484375	-410.7301330566406	784.8492431640625	1397.388549804688	-512.9447021484375	824.47802734375	1197.109741210938	-584.0545654296875	724.5725708007812	1168.067138671875	-561.5719604492188	882.6856689453125	939.689453125	-514.9519653320312	866.18408203125	932.7161254882812	-602.395751953125	855.4557495117188	1085.603637695312	-596.9453125	912.9324340820312	754.2113647460938	-504.2406005859375	900.5821533203125	843.814453125	-586.3468017578125	919.3847045898438	850.6517944335938	-518.5370483398438	520.3225708007812	1458.378540039062	-156.9225311279297	465.4464416503906	1382.955078125	-127.1336212158203	408.3630981445312	1127.829833984375	-190.6717224121094	485.2234802246094	1107.023315429688	-254.1964874267578	510.6221313476562	857.793701171875	-145.986572265625	418.568359375	845.2388305664062	-158.8369598388672	403.4060363769531	1049.1796875	-182.6770477294922	534.30224609375	674.2587890625	-170.9469909667969	520.9198608398438	745.1022338867188	-128.75146484375	446.9518737792969	740.753662109375	-142.0799407958984	696.0807495117188	1692.72509765625	-255.6453247070312	623.216064453125	1622.09619140625	-61.72133255004883	717.2131958007812	1638.126342773438	-83.23754119873047	558.50634765625	1664.191772460938	-218.650634765625	743.539794921875	939.50830078125	-502.9517517089844	595.0503540039062	917.199951171875	-162.3454132080078	716.3682861328125	954.2203979492188	-177.1533355712891	817.8590698242188	984.66943359375	-386.9853515625	799.6552734375	486.8374328613281	-502.3396911621094	780.8176879882812	636.5363159179688	-518.9501953125	412.2152404785156	221.4838256835938	-724.3436889648438	606.8359985351562	359.4401550292969	-632.5768432617188	494.8626098632812	39.92209625244141	-626.0145874023438	462.7135009765625	90.34806823730469	-618.7160034179688	475.2529602050781	114.9218673706055	-722.2731323242188	365.7155456542969	281.28515625	-686.7406005859375	746.1370239257812	511.2749328613281	-153.8433532714844	645.988037109375	762.5173950195312	-139.9996032714844	756.0372924804688	32.83802795410156	-286.6058654785156	755.9816284179688	380.9432067871094	-173.9032897949219	935.3442993164062	34.52520370483398	-133.9921417236328	919.7531127929688	39.64374923706055	-201.406982421875	833.115478515625	34.93063735961914	-158.1918029785156	757.096923828125	34.09413146972656	-356.2800598144531	
